<svg width="121" height="119" viewBox="0 0 121 119" fill="none" xmlns="http://www.w3.org/2000/svg">
<g id="css">
<path id="Vector" d="M22.6325 101.154L14.21 7.4375H106.79L98.3562 101.139L60.4437 111.562L22.6325 101.154Z" fill="#1572B6"/>
<path id="Vector_2" d="M60.5 103.597L91.1375 95.174L98.345 15.1019H60.5V103.597Z" fill="#1F9CF0"/>
<path id="Vector_3" d="M60.5 49.054H75.8375L76.895 37.2842H60.5V25.7896H89.5625L89.285 28.8724L86.4387 60.5487H60.5V49.054Z" fill="white"/>
<path id="Vector_4" d="M60.5711 78.9045L60.5186 78.9193L47.6112 75.4609L46.7862 66.2942H35.1499L36.7737 84.3413L60.5149 90.8788L60.5711 90.864V78.9045Z" fill="#EBEBEB"/>
<path id="Vector_5" d="M74.8513 60.0615L73.4563 75.4534L60.53 78.9119V90.8714L84.29 84.3412L84.4663 82.4001L86.48 60.0615H74.8513Z" fill="white"/>
<path id="Vector_6" d="M60.5411 25.7896V37.2842H32.5436L32.3111 34.6997L31.7824 28.8724L31.5049 25.7896H60.5411ZM60.4999 49.054V60.5487H47.7536L47.5211 57.9642L46.9961 52.1369L46.7186 49.054H60.4999Z" fill="#EBEBEB"/>
</g>
</svg>
