<svg width="89" height="87" viewBox="0 0 89 87" fill="none" xmlns="http://www.w3.org/2000/svg">
<g id="bootstrap" clip-path="url(#clip0_118_4174)">
<path id="Vector" d="M0.417969 75.7821C0.417969 81.9781 5.49825 87 11.7648 87H77.0708C83.3384 87 88.418 81.9774 88.418 75.7821V11.2182C88.418 5.02187 83.3377 0 77.0711 0H11.7652C5.49756 0 0.417969 5.02255 0.417969 11.2179V75.7818V75.7821Z" fill="#563D7C"/>
<path id="Vector_2" d="M36.9099 38.4832V26.1629H47.8793C48.9243 26.1629 49.9315 26.2489 50.9015 26.4212C51.8716 26.5931 52.7299 26.9003 53.4762 27.3431C54.2222 27.786 54.8193 28.4007 55.2672 29.1875C55.7147 29.9746 55.9388 30.9829 55.9388 32.2121C55.9388 34.4255 55.2672 36.0241 53.9238 37.0076C52.5808 37.9915 50.8644 38.4832 48.7748 38.4832H36.9099ZM25.1938 17.1621V69.8379H51.0136C53.4016 69.8379 55.7274 69.5429 57.991 68.9526C60.2546 68.3623 62.2693 67.4525 64.0355 66.223C65.8014 64.9934 67.207 63.407 68.2516 61.4645C69.2966 59.5216 69.8188 57.2222 69.8188 54.5663C69.8188 51.2709 69.0103 48.4553 67.3936 46.1192C65.7766 43.7828 63.3264 42.1474 60.0429 41.2129C62.4309 40.0819 64.2346 38.6307 65.4535 36.8601C66.6721 35.0895 67.2816 32.8765 67.2816 30.2203C67.2816 27.7612 66.8711 25.6956 66.0503 24.0232C65.2294 22.3512 64.0727 21.0108 62.5801 20.0025C61.0879 18.9942 59.2969 18.2686 57.2073 17.8262C55.118 17.3833 52.8045 17.1621 50.2673 17.1621H25.1938ZM36.9099 60.8371V46.3771H49.6702C52.2074 46.3771 54.2473 46.9548 55.7897 48.111C57.3317 49.2668 58.1031 51.1971 58.1031 53.9023C58.1031 55.2797 57.8666 56.4107 57.3939 57.296C56.9213 58.1813 56.2871 58.8823 55.4909 59.3986C54.6952 59.9151 53.7746 60.2839 52.7299 60.5054C51.6849 60.7263 50.5908 60.8371 49.4464 60.8371H36.9099Z" fill="white"/>
</g>
<defs>
<clipPath id="clip0_118_4174">
<rect width="88" height="87" fill="white" transform="translate(0.417969)"/>
</clipPath>
</defs>
</svg>
