<svg width="114" height="101" viewBox="0 0 114 101" fill="none" xmlns="http://www.w3.org/2000/svg">
<g id="react" clip-path="url(#clip0_118_4170)">
<path id="Vector" d="M93.4055 32.7027C92.203 32.2887 90.9903 31.9051 89.7686 31.5523C89.9738 30.7106 90.1627 29.8792 90.3304 29.0623C93.0837 15.6483 91.2838 4.84178 85.1359 1.28375C79.2415 -2.12722 69.6015 1.42949 59.8658 9.93342C58.9063 10.773 57.9681 11.6368 57.052 12.524C56.4388 11.934 55.8148 11.3556 55.1802 10.7888C44.9766 1.69616 34.7492 -2.13608 28.608 1.43215C22.7188 4.85374 20.9749 15.0127 23.4537 27.7254C23.7003 28.9844 23.9787 30.237 24.2887 31.4819C22.841 31.8947 21.4441 32.3342 20.1072 32.8019C8.14431 36.9881 0.504639 43.5483 0.504639 50.3529C0.504639 57.3808 8.70617 64.43 21.166 68.7043C22.1762 69.0495 23.1947 69.3692 24.2208 69.6634C23.8875 71.0042 23.5917 72.354 23.3336 73.7114C20.9705 86.2035 22.8159 96.1223 28.6892 99.5222C34.7554 103.033 44.9369 99.4247 54.8505 90.7268C55.6544 90.0196 56.4406 89.2925 57.2083 88.546C58.2003 89.5066 59.2188 90.4393 60.2626 91.343C69.8659 99.6365 79.35 102.985 85.2176 99.5762C91.2781 96.055 93.2479 85.3995 90.6906 72.4356C90.4891 71.42 90.2632 70.4094 90.0131 69.4047C90.7281 69.1921 91.4299 68.9732 92.114 68.7455C105.067 64.4384 113.495 57.4747 113.495 50.3529C113.495 43.5234 105.609 36.919 93.4055 32.7027ZM90.5961 64.1474C89.9782 64.3525 89.3444 64.5505 88.6982 64.7432C87.2682 60.1995 85.3385 55.3684 82.9768 50.3764C85.2304 45.5036 87.0859 40.734 88.4758 36.22C89.6317 36.5558 90.7533 36.9097 91.8346 37.2832C102.291 40.8961 108.668 46.2372 108.668 50.3529C108.668 54.7367 101.78 60.4277 90.5961 64.1474ZM85.9556 73.3765C87.0864 79.1087 87.2475 84.2916 86.4985 88.3435C85.8258 91.9844 84.4726 94.4115 82.7989 95.3839C79.2384 97.4526 71.6234 94.7637 63.4109 87.6706C62.44 86.8305 61.4926 85.9634 60.5698 85.0703C63.7538 81.5756 66.9356 77.5131 70.0411 73.0008C75.5035 72.5144 80.664 71.7188 85.3438 70.6331C85.5693 71.5426 85.7732 72.4573 85.9556 73.3765ZM39.0256 95.0264C35.5467 96.2592 32.7758 96.2946 31.1008 95.3254C27.5368 93.2624 26.0551 85.298 28.0761 74.6151C28.3164 73.3527 28.5914 72.0972 28.901 70.8502C33.5292 71.8779 38.6522 72.6168 44.1274 73.0624C47.2541 77.4776 50.5277 81.5358 53.827 85.0894C53.1258 85.7703 52.4081 86.4338 51.6744 87.0793C47.2903 90.9252 42.8973 93.654 39.0256 95.0264ZM22.7276 64.1204C17.218 62.2302 12.6679 59.7738 9.54919 57.0933C6.74649 54.6848 5.3319 52.2932 5.3319 50.3529C5.3319 46.2234 11.4656 40.9564 21.6961 37.3766C22.9377 36.9425 24.2371 36.5327 25.5855 36.1482C26.9996 40.7641 28.8543 45.5904 31.0924 50.4707C28.8251 55.4233 26.944 60.3267 25.5162 64.997C24.5796 64.7278 23.6498 64.4355 22.7276 64.1204ZM28.1909 26.7947C26.0674 15.9031 27.4776 7.68706 31.0267 5.62497C34.8066 3.42867 43.1652 6.56011 51.9754 14.4115C52.5499 14.9247 53.1151 15.4482 53.6707 15.9819C50.3878 19.52 47.1442 23.548 44.0453 27.9371C38.7312 28.4315 33.6444 29.2253 28.9677 30.2889C28.6795 29.131 28.4205 27.9661 28.1909 26.7951V26.7947ZM76.93 38.8739C75.8254 36.9589 74.6797 35.0679 73.4939 33.2024C77.099 33.66 80.5532 34.2673 83.7968 35.0098C82.8232 38.1425 81.6094 41.4175 80.1807 44.7753C79.1364 42.7867 78.0526 40.8191 76.93 38.8739ZM57.0542 19.4443C59.2805 21.8652 61.5103 24.5678 63.7035 27.5003C59.2545 27.2894 54.798 27.2886 50.349 27.4977C52.5443 24.5922 54.7931 21.8931 57.0542 19.4443ZM37.0509 38.9071C35.9424 40.8367 34.8788 42.792 33.8612 44.7713C32.4558 41.4255 31.2531 38.1355 30.2711 34.9584C33.4948 34.2346 36.9326 33.6427 40.5148 33.1935C39.3158 35.0704 38.1608 36.9754 37.0509 38.9067V38.9071ZM40.6176 67.8569C36.9168 67.4423 33.4273 66.881 30.2044 66.1767C31.2019 62.9429 32.4311 59.5829 33.8669 56.1653C34.8886 58.1461 35.9566 60.1026 37.0699 62.033C38.2148 64.0176 39.4003 65.9614 40.6176 67.8569ZM57.1875 81.6027C54.8995 79.1255 52.6176 76.3848 50.3891 73.4372C52.5527 73.5222 54.7582 73.5656 57 73.5656C59.303 73.5656 61.5796 73.5138 63.8204 73.4137C61.6202 76.4145 59.3988 79.1592 57.1875 81.6027ZM80.2262 55.9907C81.7365 59.446 83.0094 62.7883 84.0202 65.9667C80.7443 66.7171 77.2072 67.3214 73.4803 67.7701C74.6745 65.8699 75.831 63.9461 76.949 61.9998C78.0857 60.0214 79.1783 58.0179 80.2262 55.9907ZM72.7679 59.5794C71.0563 62.5634 69.2486 65.4909 67.3474 68.357C63.9037 68.6018 60.4523 68.7234 57 68.7216C53.4836 68.7216 50.0634 68.6118 46.7699 68.3974C44.8191 65.5378 42.9769 62.6053 41.247 59.6059H41.2475C39.5258 56.6225 37.9176 53.5745 36.4264 50.4685C37.9138 47.3618 39.5171 44.3124 41.2329 41.3267L41.2325 41.3271C42.9476 38.3407 44.7752 35.4206 46.7112 32.5734C50.0713 32.3182 53.5171 32.1853 56.9995 32.1853H57C60.4983 32.1853 63.9484 32.3195 67.3077 32.5765C69.2242 35.4195 71.0401 38.3295 72.752 41.301C74.4735 44.2801 76.098 47.3147 77.623 50.3999C76.1137 53.5166 74.4943 56.5783 72.7679 59.5794ZM82.7252 5.48056C86.5086 7.67067 87.9801 16.5024 85.6029 28.0842C85.4511 28.8231 85.2807 29.5757 85.0953 30.339C80.4071 29.2528 75.3168 28.4452 69.9873 27.9433C66.8827 23.506 63.6655 19.4717 60.436 15.9792C61.2824 15.1604 62.1489 14.3628 63.0348 13.5871C71.3767 6.30141 79.173 3.42468 82.7252 5.48056ZM57 40.2263C62.5723 40.2263 67.0897 44.7603 67.0897 50.3529C67.0897 55.9456 62.5723 60.4795 57 60.4795C51.4277 60.4795 46.9102 55.9456 46.9102 50.3529C46.9102 44.7603 51.4277 40.2263 57 40.2263Z" fill="#00D8FF"/>
</g>
<defs>
<clipPath id="clip0_118_4170">
<rect width="113" height="101" fill="white" transform="translate(0.5)"/>
</clipPath>
</defs>
</svg>
