<svg width="118" height="88" viewBox="0 0 118 88" fill="none" xmlns="http://www.w3.org/2000/svg">
<g id="sass" clip-path="url(#clip0_118_4172)">
<path id="Vector" d="M101.173 50.5766C97.103 50.5975 93.5653 51.5694 90.6035 53.0063C89.5162 50.8721 88.4295 48.9708 88.238 47.576C88.0246 45.9493 87.7691 44.9561 88.0246 43.0122C88.2805 41.0683 89.4312 38.3001 89.4098 38.089C89.3887 37.8778 89.1538 36.8846 86.8098 36.8637C84.4658 36.8424 82.4413 37.3073 82.2068 37.92C81.9724 38.5326 81.525 39.9273 81.2266 41.3637C80.8216 43.4771 76.5386 51.0198 74.0881 54.971C73.2993 53.4291 72.6174 52.0765 72.468 50.999C72.255 49.3722 71.9991 48.379 72.255 46.4351C72.5109 44.4912 73.6617 41.7235 73.6402 41.5119C73.6187 41.3007 73.3843 40.3075 71.0403 40.2866C68.6958 40.2653 66.6713 40.7302 66.4373 41.3429C66.2029 41.9559 65.9469 43.3923 65.457 44.7871C64.9667 46.1818 59.2769 58.775 57.7852 62.0285C57.1824 63.3453 56.5501 64.6487 55.8886 65.9376C55.8886 65.9376 55.8672 66.001 55.8032 66.1066C55.5954 66.5107 55.3824 66.9122 55.1643 67.311V67.3318C54.8444 67.9028 54.5035 68.4307 54.333 68.4307C54.205 68.4307 53.9706 66.9095 54.3755 64.8387C55.2278 60.4652 57.2524 53.6615 57.2313 53.4291C57.2313 53.3022 57.6148 52.1191 55.9101 51.506C54.2475 50.8934 53.6511 51.9075 53.5017 51.9075C53.3527 51.9075 53.2458 52.2668 53.2458 52.2668C53.2458 52.2668 55.1003 44.618 49.7085 44.618C46.3417 44.618 41.6958 48.2734 39.3943 51.5694C36.778 52.9811 34.1639 54.3968 31.552 55.8166C30.2953 56.5139 28.9951 57.2113 27.7803 57.8661C27.6949 57.7818 27.6099 57.6758 27.5244 57.5915C21.0034 50.6822 8.942 45.8012 9.45339 36.5257C9.64534 33.1449 10.8171 24.2705 32.6178 13.4947C50.5608 4.72583 64.8392 7.15549 67.3111 12.5436C70.8484 20.2349 59.6608 34.5183 41.1204 36.5887C34.0455 37.3708 30.3373 34.6661 29.4 33.652C28.4197 32.5953 28.2703 32.5318 27.9079 32.7435C27.3115 33.0606 27.6949 34.0113 27.9079 34.5605C28.4622 35.9969 30.7422 38.5326 34.5994 39.7796C38.0091 40.878 46.2988 41.491 56.3361 37.6454C67.5666 33.3348 76.3466 21.3546 73.7682 11.3183C71.1893 1.13391 54.141 -2.22556 38.0091 3.45799C28.4197 6.83921 18.02 12.1634 10.5402 19.094C1.65363 27.334 0.246961 34.497 0.822334 37.4976C2.88984 48.1465 17.7006 55.0771 23.6248 60.2114C23.3263 60.3804 23.0489 60.5286 22.8149 60.6555C19.8526 62.1132 8.55811 67.9658 5.74523 74.1568C2.54891 81.1716 6.25708 86.2009 8.70756 86.8765C16.3154 88.9686 24.1362 85.2076 28.3342 78.9953C32.5323 72.7834 32.0209 64.7119 30.0818 61.0144C30.0604 60.9722 30.0393 60.9296 29.9964 60.8875C30.7637 60.4439 31.552 59.979 32.3194 59.5354C33.7296 58.7088 35.1578 57.9126 36.6029 57.1474C35.8781 59.1126 35.3452 61.458 35.0897 64.8387C34.7698 68.8113 36.4105 73.9665 38.563 75.9947C39.5223 76.8828 40.6515 76.9037 41.3763 76.9037C43.8908 76.9037 45.0205 74.8329 46.2778 72.3819C47.8119 69.3818 49.1971 65.8954 49.1971 65.8954C49.1971 65.8954 47.471 75.3191 52.1595 75.3191C53.8641 75.3191 55.5902 73.1214 56.3575 72.0017V72.0226C56.3575 72.0226 56.4 71.9592 56.4855 71.8114C56.656 71.5368 56.7624 71.3674 56.7624 71.3674V71.3257C57.4443 70.1421 58.9789 67.4587 61.2589 63.0004C64.1998 57.2534 67.0342 50.0696 67.0342 50.0696C67.0342 50.0696 67.2901 51.8232 68.1634 54.739C68.6753 56.4505 69.7401 58.331 70.5929 60.148C69.911 61.0991 69.4846 61.627 69.4846 61.627L69.5061 61.6483C68.9518 62.3665 68.3554 63.1481 67.6945 63.9094C65.3716 66.6558 62.6016 69.8045 62.2178 70.7126C61.7699 71.7901 61.8768 72.5722 62.7296 73.2062C63.3475 73.6711 64.4553 73.734 65.585 73.6711C67.6735 73.5229 69.1437 73.0158 69.8681 72.6991C70.9978 72.2976 72.319 71.6846 73.5548 70.776C75.8352 69.1067 77.22 66.7192 77.0925 63.5714C77.0285 61.8386 76.4531 60.1059 75.7498 58.4787C75.9632 58.1833 76.1547 57.8874 76.3681 57.5915C79.9693 52.3724 82.7612 46.6462 82.7612 46.6462C82.7612 46.6462 83.0171 48.3998 83.8905 51.3161C84.3168 52.7951 85.1907 54.401 85.9575 55.9643C82.5693 58.6903 80.4807 61.8594 79.7349 63.9302C78.3926 67.7759 79.4365 69.5082 81.4185 69.9097C82.3133 70.1 83.592 69.6772 84.5298 69.2757C85.7231 68.8956 87.1297 68.2408 88.4724 67.2684C90.7529 65.5995 92.9474 63.275 92.8195 60.1272C92.7555 58.6903 92.3721 57.2743 91.8392 55.9009C94.7161 54.7182 98.4242 54.063 103.155 54.6122C113.299 55.7953 115.302 62.0706 114.918 64.7123C114.535 67.3531 112.404 68.79 111.701 69.2336C110.997 69.6777 110.763 69.8254 110.827 70.1421C110.912 70.607 111.253 70.5862 111.85 70.5014C112.681 70.3537 117.178 68.3672 117.369 63.5075C117.689 57.2956 111.722 50.5132 101.173 50.5766ZM22.9214 76.7346C19.5542 80.3687 14.8662 81.7421 12.8417 80.5803C10.6681 79.3333 11.5204 73.9665 15.6545 70.1213C18.169 67.7759 21.4083 65.5991 23.5608 64.2683C24.0507 63.9724 24.7755 63.5501 25.6493 63.0217C25.7983 62.937 25.8838 62.8948 25.8838 62.8948L26.3952 62.5776C27.9078 68.0713 26.4591 72.9103 22.9214 76.7346ZM47.4285 60.2114C46.2563 63.043 43.8058 70.2903 42.3141 69.8888C41.0354 69.5508 40.2466 64.0571 42.0582 58.6269C42.9745 55.9009 44.9136 52.647 46.0433 51.3796C47.8759 49.3509 49.9005 48.6744 50.3904 49.4991C51.0087 50.5766 48.1529 58.4365 47.4285 60.2114ZM67.652 69.8041C67.1617 70.0578 66.6932 70.2269 66.4798 70.1C66.3308 70.0153 66.6932 69.6772 66.6932 69.6772C66.6932 69.6772 69.2292 66.973 70.2305 65.7473C70.8063 65.0291 71.4877 64.184 72.2125 63.2329V63.5075C72.2125 66.7405 69.0583 68.9169 67.6516 69.8041H67.652ZM83.2511 66.2756C82.8887 66.0219 82.9527 65.1768 84.1674 62.5355C84.6363 61.5001 85.7441 59.7678 87.6411 58.0985C87.8541 58.7746 88.0035 59.4298 87.9821 60.0424C87.9606 64.1205 85.0202 65.6417 83.2511 66.2756Z" fill="#CD6799"/>
</g>
<defs>
<clipPath id="clip0_118_4172">
<rect width="117" height="87" fill="white" transform="translate(0.5 0.5)"/>
</clipPath>
</defs>
</svg>
